<svg width="24" height="24" viewBox="0 0 24 24" fill="none" xmlns="http://www.w3.org/2000/svg">
<path fill-rule="evenodd" clip-rule="evenodd" d="M18.3849 23.735C18.7069 24.0086 19.1219 24.077 19.4919 23.909C19.8619 23.7398 20.1339 23.3606 20.2159 22.901C21.0849 18.0002 23.193 5.59578 23.984 1.13778C24.044 0.801779 23.944 0.452578 23.724 0.228178C23.504 0.00377795 23.199 -0.0610223 22.927 0.0601779C18.7339 1.92258 5.82054 7.73659 0.542411 10.0802C0.207403 10.229 -0.0106024 10.6154 0.000397864 11.039C0.0123982 11.4638 0.250404 11.8322 0.593413 11.9558C2.96047 12.8054 6.06755 13.9874 6.06755 13.9874C6.06755 13.9874 7.51958 19.2494 8.2766 21.9254C8.3716 22.2614 8.59061 22.5254 8.87962 22.6166C9.16762 22.7066 9.47563 22.6118 9.69064 22.3682C10.9067 20.9906 12.7867 18.8606 12.7867 18.8606C12.7867 18.8606 16.3588 22.0034 18.3849 23.735ZM7.37458 13.3226L9.05362 19.9682L9.42663 15.7598C9.42663 15.7598 15.9138 8.73859 19.6119 4.73658C19.7199 4.61898 19.7349 4.42218 19.6449 4.28418C19.5559 4.14618 19.3919 4.11378 19.2689 4.20738C14.9828 7.49179 7.37458 13.3226 7.37458 13.3226Z" fill="#FEEDDD"/>
</svg>
