<svg width="35" height="22" viewBox="0 0 35 22" fill="none" xmlns="http://www.w3.org/2000/svg">
<path d="M19.1938 21.9903C20.0819 21.9903 20.445 21.3523 20.4348 20.5524C20.3896 17.5401 21.476 15.9184 23.4374 18.0319C25.6073 20.3702 26.0564 21.9903 28.6915 21.9903H33.358C34.5363 21.9903 35 21.5817 35 20.9406C35 19.5845 32.9278 17.1912 31.172 15.4344C28.7134 12.9751 28.5982 12.917 30.7156 9.95644C33.3419 6.28092 36.7776 1.57141 33.7386 1.57141H27.9332C26.8074 1.57141 26.7258 2.25497 26.3247 3.27324C24.8738 6.96134 22.1162 11.7384 21.0691 11.0077C19.974 10.2456 20.4756 7.22691 20.5587 2.74054C20.5806 1.55569 20.5748 0.743276 18.8948 0.322139C17.9776 0.0942844 17.0851 0 16.2568 0C12.9422 0 10.6556 1.49755 11.9549 1.75841C14.2459 2.21883 14.0257 7.56004 13.4919 9.86687C12.5616 13.8834 9.06462 6.68634 7.60781 3.10196C7.25636 2.24083 7.14845 1.57141 5.89434 1.57141H1.14766C0.43019 1.57141 0 1.82283 0 2.38225C0 3.32824 4.31649 12.9421 8.43756 17.7349C12.4566 22.4098 16.4289 21.9903 19.1938 21.9903Z" fill="#FEEDDD"/>
</svg>
