<svg width="24" height="24" viewBox="0 0 24 24" fill="none" xmlns="http://www.w3.org/2000/svg">
<path d="M3.1824 0H4.9104L6.096 3.70204L7.1952 0H8.94L6.942 5.50506V9.2621H5.2248V5.50506L3.1824 0V0ZM11.0952 2.37302C9.7524 2.37302 8.862 3.11303 8.862 4.20804V7.55708C8.862 8.76109 9.6168 9.3881 11.0952 9.3881C12.3216 9.3881 13.2864 8.70509 13.2864 7.55708V4.20804C13.2864 3.13903 12.33 2.37302 11.0952 2.37302ZM11.7324 7.50008C11.7324 7.87208 11.5044 8.14608 11.094 8.14608C10.6728 8.14608 10.4292 7.85908 10.4292 7.50008V4.32104C10.4292 3.94704 10.6356 3.67004 11.064 3.67004C11.532 3.67004 11.7324 3.93904 11.7324 4.32104V7.50008ZM17.4072 2.43003V7.61608C17.2212 7.81008 16.8072 8.12808 16.5108 8.12808C16.1856 8.12808 16.1052 7.94208 16.1052 7.66808V2.43003H14.5812V8.14009C14.5812 8.81509 14.8284 9.3601 15.6456 9.3601C16.1064 9.3601 16.7472 9.1601 17.4072 8.50709V9.2611H18.9312V2.43003H17.4072ZM20.0508 16.2882C19.5132 16.2882 19.4016 16.6032 19.4016 17.0512V17.7102H20.6844V17.0502C20.6856 16.6102 20.574 16.2882 20.0508 16.2882ZM14.4072 16.3282C14.3064 16.3712 14.2068 16.4372 14.1072 16.5262V20.5812C14.226 20.6872 14.34 20.7632 14.4516 20.8102C14.688 20.9102 15.0336 20.9172 15.1944 20.7432C15.2784 20.6512 15.3204 20.5022 15.3204 20.2942V16.9352C15.3204 16.7152 15.2688 16.5492 15.1656 16.4352C14.9892 16.2422 14.6616 16.2212 14.4072 16.3282ZM20.1996 11.1331C17.0748 10.9561 6.9204 10.9561 3.8004 11.1331C0.4236 11.3251 0.0252 13.0251 0 17.5002C0.0252 21.9672 0.42 23.6752 3.8004 23.8672C6.9204 24.0443 17.0748 24.0443 20.1996 23.8672C23.5764 23.6752 23.9748 21.9742 24 17.5002C23.9748 13.0331 23.58 11.3251 20.1996 11.1331ZM5.4108 21.8192H3.7752V14.2791H2.0832V12.9991H7.1016V14.2791H5.4096V21.8192H5.4108ZM11.226 21.8192H9.774V21.1012C9.5064 21.3662 9.228 21.5682 8.9388 21.7062C8.1564 22.0802 7.0824 22.0712 7.0824 20.7512V15.3132H8.5332V20.3012C8.5332 20.5632 8.6088 20.7392 8.9196 20.7392C9.2028 20.7392 9.5964 20.4362 9.7728 20.2522V15.3132H11.2248V21.8192H11.226ZM16.8144 20.4712C16.8144 21.2762 16.4532 21.9022 15.4872 21.9022C14.9556 21.9022 14.5128 21.7402 14.1084 21.3192V21.8192H12.6432V12.9991H14.1084V15.8392C14.436 15.5062 14.8812 15.2312 15.3996 15.2312C16.4628 15.2312 16.8156 15.9802 16.8156 16.8622V20.4712H16.8144ZM22.1796 18.7192H19.4028V19.9472C19.4028 20.4352 19.4532 20.8572 20.0364 20.8572C20.6496 20.8572 20.6856 20.5132 20.6856 19.9472V19.4952H22.1796V19.9842C22.1796 21.2372 21.534 21.9972 20.004 21.9972C18.618 21.9972 17.9088 21.1552 17.9088 19.9842V17.0632C17.9088 15.9342 18.804 15.1492 20.1132 15.1492C21.5064 15.1492 22.1784 15.8872 22.1784 17.0632V18.7192H22.1796Z" fill="#FEEDDD"/>
</svg>
