<svg width="20" height="13" viewBox="0 0 20 13" fill="none" xmlns="http://www.w3.org/2000/svg">
<path d="M7.5093 0.890826C7.73206 1.06912 7.8964 1.30805 8.015 1.55644C8.21834 1.98234 8.3239 2.50457 8.37353 3.02208C8.4731 4.06018 8.36053 5.22904 8.19731 5.9492L8.19728 5.94933C8.12438 6.27061 8.0083 6.57659 7.79726 6.7841C7.68319 6.89625 7.5395 6.98102 7.36956 7.01436C7.20244 7.04715 7.04515 7.02336 6.91116 6.97623C6.65936 6.88764 6.44231 6.70025 6.26675 6.51282C6.08241 6.31601 5.89969 6.07063 5.72366 5.80317C5.0249 4.74154 4.3023 3.13108 3.88292 2.07776C3.85257 2.00185 3.83177 1.94652 3.81346 1.8978C3.79248 1.84198 3.77476 1.79484 3.74966 1.73532C3.71139 1.64454 3.68414 1.5989 3.66285 1.57265C3.64753 1.55376 3.63386 1.54261 3.60747 1.53192C3.57433 1.51849 3.50414 1.49966 3.36819 1.49966H0.655806C0.593992 1.49966 0.547067 1.50437 0.512969 1.51065C0.527383 1.566 0.550594 1.64224 0.583907 1.74009C0.651238 1.93787 0.75243 2.20235 0.88413 2.52027C1.14705 3.15497 1.52389 3.98424 1.97478 4.88527C2.88098 6.69615 4.06529 8.75449 5.20388 10.1063L5.20391 10.1063C6.28895 11.3947 7.34324 11.9567 8.29188 12.209C9.11734 12.4284 9.87486 12.4206 10.5902 12.4133C10.7174 12.412 10.8432 12.4107 10.9679 12.4107C11.0332 12.4107 11.0676 12.3989 11.0828 12.3918C11.0966 12.3854 11.1064 12.3776 11.1163 12.3645C11.1407 12.3322 11.1791 12.2459 11.1771 12.0785C11.1771 12.0784 11.1771 12.0783 11.1771 12.0782L11.677 12.0719L7.5093 0.890826ZM7.5093 0.890826C7.92376 0.727237 8.55121 0.583008 9.28961 0.583008C9.72428 0.583008 10.1926 0.633519 10.6736 0.755437C11.0835 0.860413 11.1636 0.980897 11.191 1.03507C11.2435 1.13862 11.2548 1.29369 11.2479 1.67258C11.2364 2.30643 11.2107 2.89001 11.1873 3.42212L11.1859 3.45473C11.1622 3.99173 11.1409 4.48308 11.1412 4.90797C11.1415 5.32859 11.1626 5.71696 11.2354 6.04084C11.3071 6.35953 11.4466 6.69633 11.7499 6.91179L12.0395 6.50417C12.6378 6.93042 14.2136 4.14379 15.0427 1.9924M7.5093 0.890826L11.7494 6.9114C12.001 7.09064 12.28 7.06753 12.4873 6.987C12.6788 6.91263 12.8488 6.77855 12.9907 6.64234C13.2802 6.36458 13.585 5.9477 13.8781 5.48063C14.4701 4.5371 15.085 3.27312 15.5092 2.17237M15.0427 1.9924L15.5092 2.17237M15.0427 1.9924L15.5093 2.17221C15.5092 2.17226 15.5092 2.17231 15.5092 2.17237M15.0427 1.9924C15.0728 1.91437 15.0998 1.83971 15.1253 1.76887C15.2944 1.30052 15.403 0.999663 15.9618 0.999663H19.2792C20.9775 0.999663 19.1373 3.62706 17.6517 5.74826C17.6182 5.79609 17.5849 5.84366 17.5518 5.89093M15.5092 2.17237L19.4563 1.5207M17.5518 5.89093L17.1423 5.60403M17.5518 5.89093L17.1421 5.60421C17.1422 5.60415 17.1422 5.60409 17.1423 5.60403M17.5518 5.89093C16.3553 7.59872 16.4063 7.65086 17.7663 9.03908L17.8126 9.08639M17.1423 5.60403C17.1711 5.56285 17.2 5.52153 17.229 5.48009C17.9662 4.42734 18.7565 3.29883 19.1793 2.42375C19.2873 2.20029 19.3646 2.00648 19.4106 1.84491C19.4581 1.6783 19.4634 1.57652 19.4569 1.52497C19.4567 1.52346 19.4565 1.52203 19.4563 1.5207M17.1423 5.60403L17.8126 9.08639M19.4563 1.5207C19.468 1.52469 19.4729 1.52764 19.4729 1.5276C19.4729 1.52759 19.4726 1.52738 19.472 1.52695C19.4578 1.51671 19.4536 1.505 19.4534 1.50506C19.4533 1.50509 19.4547 1.50935 19.4563 1.5207ZM17.8126 9.08639L17.4553 9.43617C17.4553 9.43619 17.4553 9.43621 17.4554 9.43624L17.8126 9.08639Z" fill="#006D9B" stroke="#006D9B"/>
</svg>
