<svg width="1920" height="369" viewBox="0 0 1920 369" fill="none" xmlns="http://www.w3.org/2000/svg">
<path d="M11.4038 92.3255C28.1459 154.147 1005.74 -80.1568 766.89 29.803C528.04 139.763 1923.73 -57.2731 1623.77 38.9974C1323.81 135.268 1920 29.8027 1920 29.8027L1920 207.567C1920 333.958 1920 446.967 1920 298.467C1920 69.5039 448.668 339.203 835.056 244.728C1221.44 150.254 354.206 176.231 180.003 258.736C165.369 265.667 413.858 279.155 269.411 284.615C124.965 290.076 81.826 284.777 1.29773 279C1.29773 279 -5.33826 30.5038 11.4038 92.3255Z" fill="url(#paint0_linear_1143_1563)" fill-opacity="0.87"/>
<defs>
<linearGradient id="paint0_linear_1143_1563" x1="1797.4" y1="25.8449" x2="1306.27" y2="965.666" gradientUnits="userSpaceOnUse">
<stop stop-color="#498AA5"/>
<stop offset="0.864583" stop-color="#9E7EAD"/>
</linearGradient>
</defs>
</svg>
