<svg width="1920" height="249" viewBox="0 0 1920 249" fill="none" xmlns="http://www.w3.org/2000/svg">
<path d="M1908.6 128.355C1891.85 214.302 914.26 -111.437 1153.11 41.4334C1391.96 194.304 -3.72652 -79.6236 296.23 54.2159C596.186 188.055 0.000111677 41.4331 0.000111677 41.4331L5.12984e-05 288.569C-2.86522e-06 464.284 -5.1294e-05 621.394 0.000111677 414.941C0.000362949 96.6274 1471.33 471.575 1084.94 340.232C698.556 208.889 1565.79 245.005 1740 359.706C1754.63 369.342 1506.14 388.093 1650.59 395.685C1795.04 403.276 1838.17 395.91 1918.7 387.878C1918.7 387.878 1925.34 42.4077 1908.6 128.355Z" fill="url(#paint0_linear_1143_1130)" fill-opacity="0.87"/>
<defs>
<linearGradient id="paint0_linear_1143_1130" x1="122.598" y1="35.9308" x2="913.584" y2="1124.66" gradientUnits="userSpaceOnUse">
<stop stop-color="#498AA5"/>
<stop offset="0.864583" stop-color="#9E7EAD"/>
</linearGradient>
</defs>
</svg>
