<svg width="28" height="30" viewBox="0 0 28 30" fill="none" xmlns="http://www.w3.org/2000/svg">
<path d="M14 18C13.575 18 13.219 17.856 12.932 17.568C12.644 17.281 12.5 16.925 12.5 16.5C12.5 16.075 12.644 15.7185 12.932 15.4305C13.219 15.1435 13.575 15 14 15C14.425 15 14.7815 15.1435 15.0695 15.4305C15.3565 15.7185 15.5 16.075 15.5 16.5C15.5 16.925 15.3565 17.281 15.0695 17.568C14.7815 17.856 14.425 18 14 18ZM8 18C7.575 18 7.2185 17.856 6.9305 17.568C6.6435 17.281 6.5 16.925 6.5 16.5C6.5 16.075 6.6435 15.7185 6.9305 15.4305C7.2185 15.1435 7.575 15 8 15C8.425 15 8.7815 15.1435 9.0695 15.4305C9.3565 15.7185 9.5 16.075 9.5 16.5C9.5 16.925 9.3565 17.281 9.0695 17.568C8.7815 17.856 8.425 18 8 18ZM20 18C19.575 18 19.219 17.856 18.932 17.568C18.644 17.281 18.5 16.925 18.5 16.5C18.5 16.075 18.644 15.7185 18.932 15.4305C19.219 15.1435 19.575 15 20 15C20.425 15 20.781 15.1435 21.068 15.4305C21.356 15.7185 21.5 16.075 21.5 16.5C21.5 16.925 21.356 17.281 21.068 17.568C20.781 17.856 20.425 18 20 18ZM14 24C13.575 24 13.219 23.856 12.932 23.568C12.644 23.281 12.5 22.925 12.5 22.5C12.5 22.075 12.644 21.719 12.932 21.432C13.219 21.144 13.575 21 14 21C14.425 21 14.7815 21.144 15.0695 21.432C15.3565 21.719 15.5 22.075 15.5 22.5C15.5 22.925 15.3565 23.281 15.0695 23.568C14.7815 23.856 14.425 24 14 24ZM8 24C7.575 24 7.2185 23.856 6.9305 23.568C6.6435 23.281 6.5 22.925 6.5 22.5C6.5 22.075 6.6435 21.719 6.9305 21.432C7.2185 21.144 7.575 21 8 21C8.425 21 8.7815 21.144 9.0695 21.432C9.3565 21.719 9.5 22.075 9.5 22.5C9.5 22.925 9.3565 23.281 9.0695 23.568C8.7815 23.856 8.425 24 8 24ZM20 24C19.575 24 19.219 23.856 18.932 23.568C18.644 23.281 18.5 22.925 18.5 22.5C18.5 22.075 18.644 21.719 18.932 21.432C19.219 21.144 19.575 21 20 21C20.425 21 20.781 21.144 21.068 21.432C21.356 21.719 21.5 22.075 21.5 22.5C21.5 22.925 21.356 23.281 21.068 23.568C20.781 23.856 20.425 24 20 24ZM3.5 30C2.675 30 1.9685 29.7065 1.3805 29.1195C0.7935 28.5315 0.5 27.825 0.5 27V6C0.5 5.175 0.7935 4.469 1.3805 3.882C1.9685 3.294 2.675 3 3.5 3H5V0H8V3H20V0H23V3H24.5C25.325 3 26.0315 3.294 26.6195 3.882C27.2065 4.469 27.5 5.175 27.5 6V27C27.5 27.825 27.2065 28.5315 26.6195 29.1195C26.0315 29.7065 25.325 30 24.5 30H3.5ZM3.5 27H24.5V12H3.5V27Z" fill="#012535"/>
</svg>
