<svg width="133" height="40" viewBox="0 0 133 40" fill="none" xmlns="http://www.w3.org/2000/svg">
<path d="M16.86 25.4C15.9 25.4 15.14 25.2467 14.58 24.94C14.02 24.6467 13.6267 24.1867 13.4 23.56C13.1733 22.92 13.06 22.1 13.06 21.1V13.56L8.22 24.5H7.76L2.5 13.3V24.5H1.66V11.3H3.7L8.5 21.54L13.06 11.3H15.06V21.1C15.06 22.3133 15.2 23.26 15.48 23.94C15.76 24.6067 16.22 24.9533 16.86 24.98V25.4ZM19.208 28.5V27.88C19.8346 27.88 20.368 27.74 20.808 27.46C21.248 27.1933 21.628 26.6467 21.948 25.82L22.348 24.72L19.048 16.9C18.848 16.3933 18.5613 16.0133 18.188 15.76C17.828 15.5067 17.408 15.3533 16.928 15.3V14.9H18.648C19.248 14.9 19.7546 15.04 20.168 15.32C20.5813 15.6 20.8946 15.9933 21.108 16.5L23.388 21.9L25.888 15.1H26.908L22.968 25.8C22.7013 26.5333 22.4146 27.0933 22.108 27.48C21.8013 27.8667 21.4613 28.1333 21.088 28.28C20.728 28.4267 20.3146 28.5 19.848 28.5H19.208ZM31.6619 24.7C30.7552 24.7 30.0219 24.5467 29.4619 24.24C28.9019 23.9333 28.4485 23.5533 28.1019 23.1L28.5619 22.74C28.8019 22.9933 29.1219 23.2467 29.5219 23.5C29.9219 23.7533 30.4819 23.88 31.2019 23.88C31.9619 23.88 32.5485 23.7333 32.9619 23.44C33.3885 23.1333 33.6019 22.6533 33.6019 22C33.6019 21.3733 33.3819 20.9 32.9419 20.58C32.5152 20.26 31.8352 20.1 30.9019 20.1H29.9819V19.28H30.9019C31.7019 19.28 32.3019 19.1333 32.7019 18.84C33.1019 18.5467 33.3019 18.1 33.3019 17.5C33.3019 16.9 33.1085 16.4533 32.7219 16.16C32.3485 15.8667 31.8952 15.72 31.3619 15.72C30.6685 15.72 30.0885 15.9133 29.6219 16.3C29.1552 16.6867 28.9019 17.2067 28.8619 17.86H28.4019C28.4019 17.3 28.4219 16.8467 28.4619 16.5C28.5019 16.1533 28.6485 15.8533 28.9019 15.6C29.1552 15.3467 29.5219 15.1667 30.0019 15.06C30.4952 14.9533 31.0619 14.9 31.7019 14.9C32.3552 14.9 32.9619 14.9867 33.5219 15.16C34.0819 15.32 34.5352 15.5867 34.8819 15.96C35.2419 16.3333 35.4219 16.8467 35.4219 17.5C35.4219 18.1 35.2285 18.5867 34.8419 18.96C34.4552 19.32 33.9419 19.5667 33.3019 19.7C34.0619 19.8333 34.6552 20.1 35.0819 20.5C35.5085 20.9 35.7219 21.4 35.7219 22C35.7219 22.68 35.5352 23.22 35.1619 23.62C34.8019 24.0067 34.3152 24.2867 33.7019 24.46C33.1019 24.62 32.4219 24.7 31.6619 24.7ZM41.903 24.7C40.9563 24.7 40.143 24.48 39.463 24.04C38.7963 23.6 38.283 23.0067 37.923 22.26C37.5763 21.5133 37.403 20.6933 37.403 19.8C37.403 18.8933 37.5763 18.0733 37.923 17.34C38.283 16.5933 38.7963 16 39.463 15.56C40.143 15.12 40.9563 14.9 41.903 14.9C42.8496 14.9 43.6563 15.12 44.323 15.56C45.003 16 45.5163 16.5933 45.863 17.34C46.223 18.0733 46.403 18.8933 46.403 19.8C46.403 20.6933 46.223 21.5133 45.863 22.26C45.5163 23.0067 45.003 23.6 44.323 24.04C43.6563 24.48 42.8496 24.7 41.903 24.7ZM41.903 23.88C42.3963 23.88 42.823 23.7 43.183 23.34C43.543 22.9667 43.8163 22.4733 44.003 21.86C44.203 21.2467 44.303 20.56 44.303 19.8C44.303 19.0267 44.203 18.34 44.003 17.74C43.8163 17.1267 43.543 16.64 43.183 16.28C42.823 15.9067 42.3963 15.72 41.903 15.72C41.4096 15.72 40.983 15.9067 40.623 16.28C40.263 16.64 39.983 17.1267 39.783 17.74C39.5963 18.34 39.503 19.0267 39.503 19.8C39.503 20.56 39.5963 21.2467 39.783 21.86C39.983 22.4733 40.263 22.9667 40.623 23.34C40.983 23.7 41.4096 23.88 41.903 23.88ZM52.2656 24.5V12.12H50.5656C49.7923 12.12 49.1856 12.3067 48.7456 12.68C48.319 13.04 48.1056 13.6333 48.1056 14.46H47.6656V12.9C47.6656 12.6333 47.7123 12.38 47.8056 12.14C47.899 11.8867 48.0656 11.6867 48.3056 11.54C48.559 11.38 48.9123 11.3 49.3656 11.3H58.6856V12.12H54.2656V24.5H52.2656ZM59.432 24.5V17.56C59.432 16.96 59.3454 16.48 59.172 16.12C59.012 15.7467 58.632 15.56 58.032 15.56H57.852V15.1H62.872C63.5787 15.1 64.2254 15.18 64.812 15.34C65.3987 15.4867 65.8654 15.74 66.212 16.1C66.5587 16.4467 66.732 16.9133 66.732 17.5C66.732 18.0733 66.5587 18.5333 66.212 18.88C65.8654 19.2267 65.3254 19.4667 64.592 19.6C65.3787 19.7333 65.9987 20 66.452 20.4C66.9054 20.7867 67.132 21.2867 67.132 21.9C67.132 22.5533 66.952 23.0733 66.592 23.46C66.232 23.8333 65.732 24.1 65.092 24.26C64.452 24.42 63.712 24.5 62.872 24.5H59.432ZM62.632 23.78C63.3787 23.78 63.9654 23.6267 64.392 23.32C64.8187 23.0133 65.032 22.54 65.032 21.9C65.032 21.2733 64.812 20.8 64.372 20.48C63.932 20.16 63.2854 20 62.432 20H61.432V23.58C61.5787 23.6333 61.772 23.68 62.012 23.72C62.252 23.76 62.4587 23.78 62.632 23.78ZM61.432 19.18H62.432C63.0854 19.18 63.612 19.04 64.012 18.76C64.4254 18.4667 64.632 18.0467 64.632 17.5C64.632 16.94 64.432 16.52 64.032 16.24C63.6454 15.96 63.1787 15.82 62.632 15.82C62.4587 15.82 62.252 15.84 62.012 15.88C61.772 15.92 61.5787 15.9667 61.432 16.02V19.18ZM73.3288 24.7C72.3821 24.7 71.5688 24.48 70.8888 24.04C70.2221 23.6 69.7088 23.0067 69.3488 22.26C69.0021 21.5133 68.8288 20.6933 68.8288 19.8C68.8288 18.8933 69.0021 18.0733 69.3488 17.34C69.7088 16.5933 70.2221 16 70.8888 15.56C71.5688 15.12 72.3821 14.9 73.3288 14.9C74.2754 14.9 75.0821 15.12 75.7488 15.56C76.4288 16 76.9421 16.5933 77.2888 17.34C77.6488 18.0733 77.8288 18.8933 77.8288 19.8C77.8288 20.6933 77.6488 21.5133 77.2888 22.26C76.9421 23.0067 76.4288 23.6 75.7488 24.04C75.0821 24.48 74.2754 24.7 73.3288 24.7ZM73.3288 23.88C73.8221 23.88 74.2488 23.7 74.6088 23.34C74.9688 22.9667 75.2421 22.4733 75.4288 21.86C75.6288 21.2467 75.7288 20.56 75.7288 19.8C75.7288 19.0267 75.6288 18.34 75.4288 17.74C75.2421 17.1267 74.9688 16.64 74.6088 16.28C74.2488 15.9067 73.8221 15.72 73.3288 15.72C72.8354 15.72 72.4088 15.9067 72.0488 16.28C71.6888 16.64 71.4088 17.1267 71.2088 17.74C71.0221 18.34 70.9288 19.0267 70.9288 19.8C70.9288 20.56 71.0221 21.2467 71.2088 21.86C71.4088 22.4733 71.6888 22.9667 72.0488 23.34C72.4088 23.7 72.8354 23.88 73.3288 23.88ZM80.3914 28.3V17.56C80.3914 16.96 80.3047 16.48 80.1314 16.12C79.9714 15.7467 79.5914 15.56 78.9914 15.56H78.6514V15.1H80.4914C80.9847 15.1 81.3581 15.1733 81.6114 15.32C81.8781 15.4533 82.0714 15.6733 82.1914 15.98C82.4581 15.7267 82.8114 15.4867 83.2514 15.26C83.7047 15.02 84.2781 14.9 84.9714 14.9C85.8114 14.9 86.5047 15.12 87.0514 15.56C87.6114 16 88.0314 16.5933 88.3114 17.34C88.5914 18.0733 88.7314 18.8933 88.7314 19.8C88.7314 20.6933 88.5847 21.5133 88.2914 22.26C88.0114 23.0067 87.5781 23.6 86.9914 24.04C86.4181 24.48 85.6847 24.7 84.7914 24.7C84.2714 24.7 83.8114 24.6333 83.4114 24.5C83.0247 24.38 82.6914 24.2467 82.4114 24.1V28.3H80.3914ZM84.2514 23.88C84.8247 23.88 85.2847 23.7 85.6314 23.34C85.9781 22.9667 86.2247 22.4733 86.3714 21.86C86.5314 21.2467 86.6114 20.56 86.6114 19.8C86.6114 19.0267 86.5381 18.34 86.3914 17.74C86.2447 17.1267 86.0047 16.64 85.6714 16.28C85.3514 15.9067 84.9381 15.72 84.4314 15.72C83.9114 15.72 83.4914 15.8333 83.1714 16.06C82.8514 16.2733 82.5981 16.52 82.4114 16.8V23.28C82.6781 23.4133 82.9714 23.5467 83.2914 23.68C83.6114 23.8133 83.9314 23.88 84.2514 23.88Z" fill="#FEEDDD"/>
<path d="M113.694 15.1085C113.416 15.9817 112.18 15.1112 110.474 15.1519C109.155 15.1834 108.015 16.2653 108 17.5075C107.986 18.575 109.531 19.6267 110.795 19.4876C112.693 19.2801 114.116 17.3184 114.274 16.2837C115.188 10.2647 114.729 7.04515 115.607 5.89886C116.182 5.14649 118.551 7.12919 119.142 9.08168C120.022 11.9888 117.464 15.1493 117.651 15.0114C117.813 14.8919 119.481 13.3333 119.922 10.9751C120.373 8.56829 118.78 5.70453 117.474 5.00599C116.26 4.35604 116.333 3.55115 116.333 2.51647C116.333 1.7851 116.471 1.0393 116.417 0.722855C116.363 0.405099 115.621 0.479937 115.554 0.623059C114.749 2.33395 114.673 12.0321 113.694 15.1085Z" fill="#FEEDDD"/>
<path d="M104.046 0.942913C103.253 0.408769 102.224 0.353647 101.377 0.799861C100.529 1.24607 100 2.12407 100 3.07686V36.9195C100 38.8763 102.108 40.1191 103.835 39.1808L131.65 24.0725C133.353 23.1473 133.468 20.7587 131.862 19.6773C129.33 17.9725 126.798 16.2664 124.266 14.5616C123.411 20.0881 118.764 24.125 113.546 24.1749C109.1 24.2169 104.678 21.3585 103.27 16.7441C101.884 12.2032 103.794 7.20958 107.941 4.66879L104.046 0.942913Z" fill="#FEEDDD"/>
</svg>
